<?xml version="1.0" encoding="UTF-8"?><svg id="_レイヤー_1" xmlns="http://www.w3.org/2000/svg" viewBox="0 0 300 150"><defs><style>.cls-1{fill:#fff;}</style></defs><path d="M176.24,54.25c2.97.68,3.21,2.63,3.39,4.73.36,4.2.71,8.41,1.28,12.59.63,4.59,1.05,5.21,5.46,5.56,5.28.42,10.61.32,15.92.33,1.02,0,2.04-.54,3.26-.89.74-8.34-.5-16.37-1.08-24.32-6.9-1.54-13.43-2.29-20.11-1.17-2.09.35-4.48,1.01-6.78-1.24,1.14-.5,1.92-1.12,2.72-1.16,6.92-.3,13.81-1.6,20.76-.57.67.1,1.34.24,2,.4,2.27.53,3.48,1.91,3.65,4.28.49,7.07,1.14,14.12,1.54,21.19.23,4.15-.68,4.79-4.72,5.52-6.83,1.24-13.59-.15-20.38-.11-2.27.01-3.1-1.38-3.41-3.29-.85-5.24-1.67-10.49-2.51-15.73-.29-1.84-.59-3.68-.99-6.12Z"/><path d="M211.49,60.2c0-2.31-.15-4.63.04-6.92.23-2.81.96-3.76,3.66-3.98,6.09-.51,12.2-.93,18.31-.99,3.64-.04,4.57.98,4.95,4.63.46,4.46.63,8.96.86,13.44.11,2.17.12,4.35.03,6.53-.12,2.82-1.18,3.79-3.98,4.03-5.55.48-11.11.97-16.66,1.51-3.49.34-5.03-.62-5.88-4.1-.55-2.24-1.06-4.52-1.26-6.81-.22-2.43-.05-4.89-.05-7.34,0,0-.01,0-.02,0ZM235.86,51.59c-2,0-3.62.2-5.18-.04-5.03-.75-9.93-.05-14.82,1.02-1.88.41-2.75,1.61-2.56,3.54.53,5.53.91,11.08,1.64,16.59.41,3.12,1.15,3.41,4.5,3.14,3.65-.3,7.31-.55,10.95-.92,2-.2,3.98-.59,6.33-.95.96-7.62.52-14.9-.86-22.38Z"/><path d="M210.18,106.09c-.52-3.39-.95-6.05-1.33-8.71-.37-2.54-.68-5.09-.98-7.33-6.91-2.53-13.52-1.25-20.13.33-1.42.34-2.9.9-4.17-1.34,8.49-3.22,16.88-4.21,26.18-2,.34,2.89.8,5.94,1.04,9,.21,2.57.31,5.05,1.36,7.55,1.22,2.9.56,5.21-3.53,5.42-7.61.4-15.21,1.17-22.81,1.78-3.09.24-3.41-.03-3.73-3.28-.22-2.31-.09-4.67-.56-6.92-.72-3.41-1.83-6.74-2.89-10.54.49-.56,1.5-.86,2.04.62,1.18,3.17,2.28,6.39,3.13,9.66.57,2.22.66,4.56,1.03,7.37,8.35.39,16.47-.23,25.35-1.6Z"/><path d="M215.18,88.51c1.87-.55,2.65.28,2.96,1.87.5,2.53,1.01,5.06,1.56,7.59.46,2.1.99,4.18,1.45,6.12h17.67c.24-6.42.58-12.41-.1-18.66-6.85.34-13.02.7-19.21.91-.74.03-1.51-.66-2.92-1.33,1.35-.71,1.99-1.29,2.67-1.35,5.41-.48,10.83-1.12,16.26-1.2,4.6-.07,5.47,1.02,5.58,5.58.12,5.3.08,10.61.07,15.92,0,.65-.24,1.31-.46,2.42-2.4.23-4.79.55-7.19.66-3.4.16-6.8.17-10.21.22-2.97.04-3.9-.55-4.73-3.38-.69-2.35-1.16-4.75-1.69-7.15-.58-2.64-1.11-5.28-1.71-8.21Z"/><path d="M155.61,69.82c1.58-.78,2.98-1.47,4.58-2.26,1,1.03,1.96,2.02,3.43,3.53-1.52.41-2.54.6-3.49.98-.9.36-1.72.91-2.46,1.32.05,3.71.99,6.71,5.08,8.78-2.95.76-3.6,2.55-4.34,4.53-2.47,6.59-6.23,12.42-11.8,16.81-4.87,3.84-9.73,7.8-15.72,9.83-2.15.73-4.44,1.42-6.68,1.47-2.82.07-3.23-.97-2.3-4.47,1.16.77,2.2,1.94,3.38,2.12,1.32.19,2.84-.37,4.16-.89,10.4-4.01,18.82-10.53,24.99-19.87,1.72-2.6,2.27-5.54,2.64-8.62-4.33-2.67-9.2-2.49-14.35-3.62,3.03-3.99,7.71-5.19,10.67-8.83-2.23-3.83-5.96-6.12-9.76-7.94-14.48-6.96-29.62-9.11-45.53-5.98-8.54,1.68-16.19,5.23-23.43,9.78-4.97,3.12-8.98,7.37-11.82,12.47-3.83,6.87-2.34,17.81,2.7,23.22,9.6,10.3,21.31,16.25,35.82,14.5,5.14-.62,10.17-2.01,14.19-5.83,2.55-2.43,3.09-4.99,1.92-8.21-1.32-3.63-3.47-6.7-6.4-9.1-1.23-1.01-3.12-1.15-4.61-1.9-.63-.32-1.01-1.16-1.5-1.77.69-.36,1.59-1.21,2.02-1.01,2.06.95,4.52,1.75,5.84,3.4,2.4,3.01,4.3,6.48,6.01,9.96,1.91,3.87.86,7.7-2.55,10.46-6.26,5.07-13.71,7.07-21.48,6.51-11.47-.83-21.57-5.38-29.38-14.05-7.66-8.51-10.51-24.6,1.47-35.01,12.06-10.48,26.06-16.23,42.15-16.82,12.36-.45,24.13,1.67,35.17,7.36,4.38,2.26,8.26,5.2,11.36,9.14ZM155.75,74.16c-1.52,1.15-2.41,1.83-4.01,3.04,2.21.71,3.54,1.14,5.51,1.78-.58-1.87-.9-2.9-1.49-4.82Z"/><path d="M131.78,73.39c.08,2.84-1.57,4.81-4.18,5.01-2.03.15-4.64-1.83-4.7-3.57-.08-2.24,3.25-6.03,5.31-6.04,1.9,0,3.51,2.06,3.58,4.6Z"/><path class="cls-1" d="M155.75,74.16c.6,1.92.91,2.95,1.49,4.82-1.97-.64-3.3-1.07-5.51-1.78,1.6-1.22,2.5-1.89,4.01-3.04Z"/></svg>