<?xml version="1.0" encoding="UTF-8"?>
<svg xmlns="http://www.w3.org/2000/svg" version="1.1" viewBox="0 0 300 300">
  <!-- Generator: Adobe Illustrator 28.7.3, SVG Export Plug-In . SVG Version: 1.2.0 Build 164)  -->
  <g>
    <g>
      <g>
        <path d="M232.1,69.3c-14.1-13.9-31.3-22.7-51.3-26.1l3.7-2.7c1.8-1.3,2.2-3.9.9-5.7-1.3-1.8-3.9-2.2-5.7-.9l-3.9,2.8,1.1-5.3c.5-2.2-1-4.4-3.2-4.9-2.2-.5-4.4,1-4.9,3.2l-2.4,11.9c-1.8,0-3.6-.1-5.5-.1s-.9,0-1.4,0c-31.5.3-57,10.3-75.8,29.7-18.2,18.8-26.4,43.2-30.1,60.3-2.3,10.5-3.1,19.5-3.5,25.4-15.1.6-33.9,2-34,6.2,0,4.1,19.5,8.6,33.5,9.4-.7,32.7,7,57.8,22.9,74.7,22,23.4,54.2,26.1,76.6,26.1s33.9,0,47.1-3c2.2-.5,3.6-2.7,3.1-4.9-.5-2.2-2.7-3.6-4.9-3.1-12.3,2.8-21.2,2.8-45.2,2.8s-50.7-2.4-70.6-23.5c-14.4-15.3-21.3-38.5-20.7-69,14.9-.8,40.9-5.5,40.9-9.8s-24.2-6.1-40.3-6.1c.4-5.7,1.2-14.1,3.3-23.7,3.5-16,11.1-38.7,27.9-56.1,17.1-17.7,40.6-26.9,69.9-27.2,3.4,0,6.7,0,10,.3.1,0,.2,0,.3,0,22.5,1.7,41.5,10.1,56.5,25,11.9,11.8,21.5,28,27.6,46.8,5,15.4,6.8,29.7,6.8,37.2,0,21.5-3,39.8-8.9,54.4-9.7,23.8-26.8,36.1-50.9,36.5-.6,0-1.1,0-1.7,0-35.6,0-42.7-24-46.6-37-.6-2.1-1.2-4-1.8-5.4-.9-2.1-3.3-3.1-5.4-2.2-2.1.9-3.1,3.3-2.2,5.4.4,1,.9,2.6,1.5,4.5,2,6.6,5.3,17.7,13.4,26.8,9.9,11.1,24.3,16.5,42.9,16.1,14.9-.3,27.7-4.7,38-13,8.5-6.9,15.4-16.6,20.3-28.7,6.3-15.5,9.5-34.9,9.5-57.5s-6.6-59.9-36.9-89.9Z"/>
        <path d="M140.4,118.2c-13.4.7-14.1,21.3,1.4,20.2,15.5-1.1,11.9-20.9-1.4-20.2Z"/>
      </g>
    </g>
  </g>
</svg>
