<?xml version="1.0" encoding="UTF-8"?><svg id="_レイヤー_1" xmlns="http://www.w3.org/2000/svg" viewBox="0 0 300 150"><path d="M144.85,106.77c-1.66-23.54-7-46.5-9.6-70-7.69,0-15.01-.47-22.24.11-9.75.78-19.43,2.39-29.15,3.62-4.18.53-8.37,1.07-12.56,1.41-1.18.1-2.41-.51-3.61-.79l-.06-1.02c.75-.33,1.49-.95,2.24-.95,7.96.03,15.66-1.87,23.49-2.83,10.66-1.3,21.4-1.99,32.12-2.82,2.81-.22,5.67.07,8.5.03,2.31-.03,3.05,1.37,3.32,3.31.64,4.58,1.25,9.17,1.93,13.75,1.4,9.29,2.91,18.57,4.25,27.87,1.32,9.16,2.49,18.33,3.7,27.51.29,2.21-.62,3.57-2.95,4.1-2.52.57-5.09.91-7.64,1.31-9.68,1.51-19.34,3.2-29.06,4.45-9.36,1.2-18.77.78-28.12-.34-1.21-.14-2.68-1.43-3.29-2.57-.94-1.76-1.5-3.82-1.75-5.81-1.19-9.59-2.07-19.23-3.35-28.81-1.15-8.61-2.71-17.16-3.98-25.75-.14-.93.27-2.03.7-2.91.13-.26,1.54-.32,1.79-.01.82,1.01,2.21,2.57,1.91,3.33-2.46,6.18.34,12.07.7,18.06.36,5.97,1.26,11.92,2.04,17.86.84,6.47,1.85,12.92,2.71,19.39.4,3.02,1.92,4.37,5.03,4.78,8.98,1.19,17.98,1.36,26.9.19,11.19-1.47,22.31-3.56,33.45-5.41.76-.13,1.47-.59,2.58-1.05Z"/><path d="M90.89,73.46c2.87-7.44,5.2-13.93,9.55-19.42,2.16.82,2.15,2.14,1.43,3.67-1.26,2.71-2.5,5.43-3.82,8.12-2.32,4.75-4.68,9.48-7.05,14.21-.16.33-.5.57-.91,1.02-3.98-2.78-3.45-8.15-6.47-11.28-2.63.53-1.41,2.26-1.41,3.56-3.64-2.6-3.04-4.53,2.75-8.14,1.76,2.44,3.54,4.91,5.94,8.24Z"/><path d="M129.66,88.18c-1.53-.88-2.31-1.33-3.28-1.89-.63.93-1.21,1.77-1.78,2.62q5.71,3.88,5.71,6.46c-1.56-1.02-2.83-1.89-4.14-2.71-2.38-1.49-3-1.33-4.51,1.08-1.23,1.96-2.4,3.96-3.71,5.85-.74,1.06-1.73,1.86-3.12.18,1.99-3.04,4.03-6.14,6.13-9.34-2.64-2.3-5.03-4.37-7.65-6.66,2.45-1.81,3.34.1,4.49.9,1.3.91,2.52,1.93,3.73,2.87,4.42-4.26,5.77-4.26,8.15.63Z"/><path d="M124.8,71.56c-2-1.51-4-3.01-6.06-4.56-2.83,2.45-3.23,5.86-5.2,9.27-1.02-4.48,1.74-7.23,2.55-10.65-2.11-1.91-4.24-3.84-6.97-6.31,4.02-.42,5.23,3.04,8.05,3.4,1.82-1.14,1.53-5.27,5.8-4.07-.91,1.01-1.6,1.7-2.21,2.45-1.78,2.2-1.67,3.26.52,5.12,1.63,1.38,3.47,2.57,3.53,5.35Z"/><path d="M91.5,97.82c2.28-4.49,2.17-10.11,7.88-12.19-1.41,2.65-3.02,5.22-4.17,7.97-1.13,2.71-1.8,5.61-2.87,9.07-4.03-3.39-5.43-7.75-7.81-11.38-.33-.5-.05-1.41-.05-3.13,3.37,3.05,3.79,7.09,7.02,9.66Z"/><path d="M158.76,83.9c3.3.66,4.59,2.58,5.34,5.32,2.07,7.57,7.5,12.52,13.75,16.6,4.7,3.07,11.66,3.61,16.04,1.67-.14-1.65-1.26-1.74-2.57-1.72-2.17.04-4.41.28-6.5-.13-2.49-.49-5.05-1.24-7.23-2.49-5.82-3.34-10.37-9.95-12.07-16.94,4.24-1.82,9.03,1.98,13.43-1.01-2-2.69-4.78-1.95-7.17-2.32-2.41-.38-4.85-.59-7.76-.94-.06-4.68.14-9.02,2.28-13.13,5.19-9.97,13.88-14.75,24.6-16.03,11.82-1.4,22.19,2.4,30.59,10.66,4.66,4.59,8.18,10.21,8.75,17.11.07.81.27,1.69.04,2.42-1.64,5.17-3.55,10.27-7.76,13.96-1.8,1.58-3.99,2.74-6.09,3.95-2.1,1.21-4.28,2.29-6.46,3.34-4.3,2.07-13.12.53-16.65-2.69-3.43-3.13-4.13-11.25,1.05-14.32,4.56-2.69,9.32-4.48,14.72-3.95.4.04.89.37,1.18.23.67-.32,1.24-.84,1.85-1.28-.46-.57-.92-1.14-1.4-1.69-.07-.08-.26-.07-.39-.07-7.37.32-14.5,1.54-19.66,7.43-4.74,5.41-1.73,15.9,5.21,18,8.97,2.72,17.36,1.57,25.17-4.12,5.99-4.36,8.9-10.55,11.33-17.06,1.7-4.56-.31-8.88-2.19-12.97-8.65-18.82-35.78-29.24-56.55-15.08-7.03,4.79-11.18,11.51-11.67,20.11-.16,2.78-.23,5.3-3.18,7.12Z"/><path d="M190.72,72.28c.03-2.33-1.56-4.22-3.51-4.15-2,.07-4.04,2.6-3.97,4.91.06,2.07,1.85,4.06,3.75,4.15,2.11.1,3.69-1.98,3.73-4.92Z"/></svg>