<?xml version="1.0" encoding="UTF-8"?><svg id="_レイヤー_1" xmlns="http://www.w3.org/2000/svg" viewBox="0 0 300 150"><defs><style>.cls-1{fill:#fff;}</style></defs><path d="M191.77,63.61c-.72-1.58-1.35-2.95-1.95-4.26-2.11-.11-3.95-.2-6.09-.3,1.07-2.68,3.75-2.39,5.57-3.96.5-3.62,1.69-7.12,5.08-9.7,9.02-6.86,23.41-7.17,32.48-.45,4.94,3.66,7.61,11.56,5.72,17.04-.22.64-.65,1.21-1.79,1.77-.08-.98-.31-1.98-.22-2.95.78-9.22-2-13.05-10.57-16.42-8.52-3.34-16.11-1.66-23.47,2.9-2.41,1.49-4.22,3.45-3.87,6.94,2.67.39,5.27.77,8.5,1.24-2.67,2.96-6.35,1.17-8.67,3.48.9,3.09,3.3,4.21,6.52,4.58-.51.82-.93,1.49-1.46,2.35,8.1,4.42,13.76,10.84,16.16,19.89,1.17-.45,2.21-1.01,3.31-1.26,3.49-.77,4.93-2.67,4.9-6.42-.03-4.16,2.85-7.24,5.74-9.83,7.21-6.44,20.32-9.67,30-4.78,8.25,4.16,13.42,10.77,14.87,20.04.49,3.12-.03,6.07-2.08,8.58-8.4,10.29-19.69,13.09-32.22,11.78-7.29-.76-11.76-5.66-14.49-12.22-2.37-5.72-2.35-5.73-8.09-3.99-.54.16-1.07.38-1.48.52-.21.4-.46.64-.47.9-.62,13.21-12.64,21.75-25.66,20.37-1.26-.13-2.64-.48-3.66-1.18-6.75-4.65-14.07-8.58-19.26-15.24-2.32-2.97-4.68-5.85-5.27-10.3h-8.15c2.3-2.74,4.7-2.61,6.85-2.95,1.48-.24,2.64-.44,3.58-1.9,6.53-10.16,16.08-14.44,27.95-14.08.4.01.81-.09,1.67-.19ZM178.35,101.14c-.18-8.45,5.12-11.25,10.95-13.08,3.96-1.24,8.18-1.71,12.31-2.27,1.4-.19,3.22-.44,4.44,1.9-1.24.29-2.24.61-3.26.74-3.14.39-6.33.55-9.44,1.1-4.47.78-8.66,2.25-11.48,6.19-2.05,2.86-1.66,4.91,1.38,6.74.98.59,2.21.87,3.03,1.61.73.66,1.04,1.77,1.72,3.01,4.68,1.41,9.18-.66,13.69-2.62,8.19-3.56,11.54-13.32,8.94-20.7-2.57-7.29-7.63-12.48-14.61-15.75-10.44-4.9-24.44.3-31.4,10-3.12,4.35-2.99,7.14.51,11.24,2.8,3.28,5.99,6.23,9.1,9.23.88.85,2.08,1.37,4.1,2.66ZM249.26,83.13c-2.25,2.48-4.66,4.75-6.61,7.37-2.19,2.94-1.38,6.1,1.89,7.87,1.34.72,3,.9,4.55,1.16.97.17,2.06-.17,2.99.08,6.53,1.76,16.9-5.95,18.12-11.8.2-.98.29-2.01.24-3.01-.42-8.63-8.12-18.34-16.54-20.32-9.24-2.17-17.92-.61-25.13,5.79-3,2.66-5.95,5.96-4.66,10.96,1.94.21,3.71.41,5.33.59.56,2.05-.68,2.28-1.76,2.7-1.16.45-2.29.98-3.35,1.44,1.81,9.78,10.15,16.64,18.48,15.94-1.05-1.56-2.15-3.03-3.09-4.61-1.29-2.17-1.36-4.55.11-6.56,2.04-2.79,4.33-5.4,6.64-7.97.9-1,2.02-.93,2.77.36Z"/><path d="M124.08,60.47c1.58-.78,2.98-1.47,4.58-2.26,1,1.03,1.96,2.02,3.43,3.53-1.52.41-2.54.6-3.49.98-.9.36-1.72.91-2.46,1.32.05,3.71.99,6.71,5.08,8.78-2.95.76-3.6,2.55-4.34,4.53-2.47,6.59-6.23,12.42-11.8,16.81-4.87,3.84-9.73,7.8-15.72,9.83-2.15.73-4.44,1.42-6.68,1.47-2.82.07-3.23-.97-2.3-4.47,1.16.77,2.2,1.94,3.38,2.12,1.32.19,2.84-.37,4.16-.89,10.4-4.01,18.82-10.53,24.99-19.87,1.72-2.6,2.27-5.54,2.64-8.62-4.33-2.67-9.2-2.49-14.35-3.62,3.03-3.99,7.71-5.19,10.67-8.83-2.23-3.83-5.96-6.12-9.76-7.94-14.48-6.96-29.62-9.11-45.53-5.98-8.54,1.68-16.19,5.23-23.43,9.78-4.97,3.12-8.98,7.37-11.82,12.47-3.83,6.87-2.34,17.81,2.7,23.22,9.6,10.3,21.31,16.25,35.82,14.5,5.14-.62,10.17-2.01,14.19-5.83,2.55-2.43,3.09-4.99,1.92-8.21-1.32-3.63-3.47-6.7-6.4-9.1-1.23-1.01-3.12-1.15-4.61-1.9-.63-.32-1.01-1.16-1.5-1.77.69-.36,1.59-1.21,2.02-1.01,2.06.95,4.52,1.75,5.84,3.4,2.4,3.01,4.3,6.48,6.01,9.96,1.91,3.87.86,7.7-2.55,10.46-6.26,5.07-13.71,7.07-21.48,6.51-11.47-.83-21.57-5.38-29.38-14.05-7.66-8.51-10.51-24.6,1.47-35.01,12.06-10.48,26.06-16.23,42.15-16.82,12.36-.45,24.13,1.67,35.17,7.36,4.38,2.26,8.26,5.2,11.36,9.14ZM124.22,64.82c-1.52,1.15-2.41,1.83-4.01,3.04,2.21.71,3.54,1.14,5.51,1.78-.58-1.87-.9-2.9-1.49-4.82Z"/><path d="M100.26,64.04c.08,2.84-1.57,4.81-4.18,5.01-2.03.15-4.64-1.83-4.7-3.57-.08-2.24,3.25-6.03,5.31-6.04,1.9,0,3.51,2.06,3.58,4.6Z"/><path d="M210.07,52.43c-.32,2.89-2.57,4.74-5.27,4.35-2.11-.31-2.93-1.42-2.63-3.55.4-2.81,2.78-4.83,5.26-4.46,1.97.3,2.87,1.55,2.64,3.65Z"/><path d="M218.47,70.63c-3.15-.25-5.37-2.27-6.61-4.93-1.45-3.09-.26-6.02,2.35-9.2-.15,3.28-.97,6.05-.17,8.22.74,2.02,3.21,3.4,4.92,5.06-.16.28-.32.56-.48.85Z"/><path class="cls-1" d="M124.22,64.82c.6,1.92.91,2.95,1.49,4.82-1.97-.64-3.3-1.07-5.51-1.78,1.6-1.22,2.5-1.89,4.01-3.04Z"/><path d="M180.45,82.57c-3-.06-6-2.49-6.09-4.32-.07-1.42,1.51-2.79,3.2-2.78,2.41.01,4.86,2.43,4.46,4.73-.17.98-1.19,1.82-1.57,2.37Z"/><path d="M232.26,83.36c.9-2.27.49-5.28,3.65-5.76.96-.15,3.06,1.08,3.05,1.63-.07,1.87-.32,4.19-1.48,5.43-1.35,1.45-3.46.67-5.21-1.3Z"/></svg>